<?xml version="1.0" encoding="UTF-8" standalone="no"?>
<svg
   viewBox="5 12 480 90"
   xmlns="http://www.w3.org/2000/svg"
   role="img"
   aria-label="HumberStack Logo">

  <!--
=====================================================================
HUMBERSTACK LOGO - VERSION 3.0 - PRODUCTION MASTER (LOCKED)
=====================================================================
This is the PRODUCTION MASTER version with Helvetica Neue text elements.
DO NOT MODIFY without proper version control procedures.

Features:
- Font-independent: All text converted to paths
- Stack icon design representing layered infrastructure
- Clean, minimal design
- Production baseline version

Created: 2026-04-16
Based on: Humberlift v1.0 master template
=====================================================================
-->
  <!-- SYMBOL -->
  <g
     transform="translate(15,20) scale(0.52)">
    <!-- Icon background with refined corner radius -->
    <rect
       x="10"
       y="10"
       width="130"
       height="130"
       rx="16"
       fill="#1a1a1a" />
    <!-- |||= icon - three vertical bars beside three horizontal bars -->
    <g
       transform="translate(26, 48)">
      <!-- Bars grouped as single entity -->
      <g>
        <!-- Three vertical bars (|||) -->
        <rect
           x="0"
           y="0"
           width="16"
           height="60"
           rx="3"
           fill="#ffffff" />
        <rect
           x="22"
           y="0"
           width="16"
           height="60"
           rx="3"
           fill="#ffffff" />
        <rect
           x="44"
           y="0"
           width="16"
           height="60"
           rx="3"
           fill="#ffffff" />
        <!-- Three horizontal bars (=) -->
        <rect
           x="65"
           y="0"
           width="35"
           height="16"
           rx="3"
           fill="#ffffff" />
        <rect
           x="65"
           y="22"
           width="35"
           height="16"
           rx="3"
           fill="#ffffff" />
        <rect
           x="65"
           y="44"
           width="35"
           height="16"
           rx="3"
           fill="#ffffff" />
      </g>
    </g>
    <!-- Subtle highlight for depth -->
    <rect
       x="10"
       y="10"
       width="180"
       height="2"
       rx="1"
       fill="#ffffff"
       opacity="0.08" />
  </g>
  <!-- WORDMARK -->
  <g
     transform="translate(100,82)">
    <!-- Main wordmark -->
    <g
       aria-label="HumberStack">
      <path
         d="M 41.53125,0 H 34.0625 V -19.4375 H 12.96875 V 0 h -7.4375 v -44.8125 h 7.4375 v 18.84375 H 34.0625 V -44.8125 h 7.46875 z" />
      <path
         d="m 73.1875,0 h -7.25 v -5.0625 h -0.125 Q 62.65625,0.75 56,0.75 44.65625,0.75 44.65625,-12.875 V -32 h 7.25 v 18.375 q 0,8.625 6.65625,8.625 3.21875,0 5.28125,-2.375 2.09375,-2.375 2.09375,-6.21875 V -32 h 7.25 z" />
      <path
         d="m 125.96875,0 h -7.25 v -17.4375 q 0,-5.03125 -1.4375,-7.28125 -1.40625,-2.25 -4.78125,-2.25 -2.84375,0 -4.84375,2.84375 -1.96875,2.84375 -1.96875,6.8125 V 0 h -7.28125 v -18.03125 q 0,-8.9375 -6.3125,-8.9375 -2.9375,0 -4.84375,2.6875 -1.875,2.6875 -1.875,6.96875 V 0 h -7.25 v -32 h 7.25 v 5.0625 H 85.5 q 3.46875,-5.8125 10.09375,-5.8125 3.3125,0 5.78125,1.84375 2.5,1.8125 3.40625,4.78125 3.5625,-6.625 10.625,-6.625 10.5625,0 10.5625,13.03125 z" />
      <path
         d="m 137.6875,-4.625 h -0.125 V 0 h -7.25 v -47.375 h 7.25 v 21 h 0.125 q 3.71875,-6.375 10.875,-6.375 6.0625,0 9.46875,4.3125 3.4375,4.28125 3.4375,11.5 0,8.03125 -3.84375,12.875 -3.84375,4.8125 -10.5,4.8125 -6.25,0 -9.4375,-5.375 z M 137.5,-17.34375 v 3.96875 q 0,3.5 2.21875,5.9375 2.25,2.4375 5.6875,2.4375 4.03125,0 6.3125,-3.125 2.3125,-3.15625 2.3125,-8.78125 0,-4.71875 -2.15625,-7.375 -2.125,-2.6875 -5.78125,-2.6875 -3.875,0 -6.25,2.75 -2.34375,2.75 -2.34375,6.875 z" />
      <path
         d="m 193.46875,-14.03125 h -21.8125 q 0.125,4.4375 2.71875,6.84375 2.625,2.40625 7.1875,2.40625 5.125,0 9.40625,-3.0625 V -2 q -4.375,2.75 -11.5625,2.75 -7.0625,0 -11.09375,-4.34375 -4,-4.375 -4,-12.28125 0,-7.46875 4.40625,-12.15625 4.4375,-4.71875 11,-4.71875 6.5625,0 10.15625,4.21875 3.59375,4.21875 3.59375,11.71875 z m -7,-5.125 q -0.0312,-3.90625 -1.84375,-6.0625 -1.8125,-2.1875 -5,-2.1875 -3.125,0 -5.3125,2.28125 -2.15625,2.28125 -2.65625,5.96875 z" />
      <path
         d="m 214.4375,-25.09375 q -1.3125,-1.03125 -3.78125,-1.03125 -3.21875,0 -5.375,2.90625 -2.15625,2.90625 -2.15625,7.90625 V 0 h -7.25 v -32 h 7.25 v 6.59375 h 0.125 q 1.0625,-3.375 3.25,-5.25 2.21875,-1.90625 4.9375,-1.90625 1.96875,0 3,0.59375 z" />
      <path
         style="fill:#f97316"
         d="M 215.8125,-1.78125 V -9.4375 q 1.03125,0.9375 2.4375,1.6875 1.4375,0.75 3.03125,1.28125 1.59375,0.5 3.1875,0.78125 1.59375,0.28125 2.9375,0.28125 4.6875,0 6.96875,-1.5625 2.3125,-1.5625 2.3125,-4.53125 0,-1.59375 -0.78125,-2.75 -0.75,-1.1875 -2.125,-2.15625 -1.375,-0.96875 -3.25,-1.84375 -1.84375,-0.90625 -3.96875,-1.875 -2.28125,-1.21875 -4.25,-2.46875 -1.96875,-1.25 -3.4375,-2.75 -1.4375,-1.53125 -2.28125,-3.4375 -0.8125,-1.90625 -0.8125,-4.46875 0,-3.15625 1.40625,-5.46875 1.4375,-2.34375 3.75,-3.84375 2.34375,-1.53125 5.3125,-2.25 2.96875,-0.75 6.0625,-0.75 7.03125,0 10.25,1.59375 v 7.34375 q -3.8125,-2.75 -9.8125,-2.75 -1.65625,0 -3.3125,0.3125 -1.625,0.3125 -2.9375,1.03125 -1.28125,0.71875 -2.09375,1.84375 -0.8125,1.125 -0.8125,2.71875 0,1.5 0.625,2.59375 0.625,1.09375 1.8125,2 1.21875,0.90625 2.9375,1.78125 1.75,0.84375 4.03125,1.84375 2.34375,1.21875 4.40625,2.5625 2.09375,1.34375 3.65625,2.96875 1.59375,1.625 2.5,3.625 0.9375,1.96875 0.9375,4.5 0,3.40625 -1.375,5.75 -1.375,2.34375 -3.71875,3.8125 -2.3125,1.46875 -5.34375,2.125 -3.03125,0.65625 -6.40625,0.65625 -1.125,0 -2.78125,-0.1875 -1.625,-0.15625 -3.34375,-0.5 -1.71875,-0.3125 -3.25,-0.78125 -1.53125,-0.46875 -2.46875,-1.0625 z" />
      <path
         style="fill:#f97316"
         d="m 264.28125,-0.34375 q -2.125,1.0625 -5.59375,1.0625 -9.3125,0 -9.3125,-8.9375 V -26.3125 h -5.34375 V -32 h 5.34375 v -7.40625 l 7.25,-2.0625 V -32 h 7.65625 v 5.6875 H 256.625 v 16 q 0,2.84375 1.03125,4.0625 1.03125,1.21875 3.4375,1.21875 1.84375,0 3.1875,-1.0625 z" />
      <path
         style="fill:#f97316"
         d="m 292.59375,0 h -7.03125 v -5 h -0.125 q -3.3125,5.75 -9.71875,5.75 -4.71875,0 -7.40625,-2.5625 -2.65625,-2.5625 -2.65625,-6.78125 0,-9.0625 10.4375,-10.5625 l 9.5,-1.34375 q 0,-6.84375 -6.5,-6.84375 -5.71875,0 -10.3125,3.9375 V -29.75 q 5.0625,-3 11.6875,-3 12.125,0 12.125,11.9375 z m -7,-15.71875 -6.71875,0.9375 q -3.125,0.40625 -4.71875,1.53125 -1.5625,1.09375 -1.5625,3.875 0,2.03125 1.4375,3.34375 Q 275.5,-4.75 277.9375,-4.75 q 3.3125,0 5.46875,-2.3125 2.1875,-2.34375 2.1875,-5.875 z" />
      <path
         style="fill:#f97316"
         d="M 319.84375,-1.46875 Q 316,0.75 310.75,0.75 q -7.125,0 -11.5,-4.4375 -4.375,-4.46875 -4.375,-11.5625 0,-7.90625 4.6875,-12.6875 4.71875,-4.8125 12.59375,-4.8125 4.375,0 7.71875,1.53125 v 6.75 q -3.34375,-2.5 -7.125,-2.5 -4.59375,0 -7.53125,3.125 -2.9375,3.09375 -2.9375,8.125 0,4.96875 2.75,7.84375 2.78125,2.875 7.4375,2.875 3.90625,0 7.375,-2.78125 z" />
      <path
         style="fill:#f97316"
         d="m 351.5625,0 h -9.1875 l -12.4375,-15.375 h -0.125 V 0 h -7.28125 v -47.375 h 7.28125 v 30.03125 h 0.125 L 341.6875,-32 h 8.71875 l -13.21875,15.4375 z" />
      <!-- Registered trademark symbol -->
      <text
         x="351"
         y="-35"
         font-family="Arial, sans-serif"
         font-size="12"
         fill="#1a1a1a">®</text>
    </g>
  </g>
</svg>
