<?xml version="1.0" encoding="UTF-8" standalone="no"?>
<svg
   viewBox="0 0 650 200"
   width="650"
   height="200"
   xmlns="http://www.w3.org/2000/svg"
   role="img"
   aria-label="HumberStack Logo">
  <!-- Humberstack Logo with Text - |||= Design -->
  <defs>
    <linearGradient
       x1="0%"
       y1="0%"
       x2="100%"
       y2="100%">
      <stop
         offset="0%"
         style="stop-color:#3b82f6;stop-opacity:1" />
      <stop
         offset="100%"
         style="stop-color:#2563eb;stop-opacity:1" />
    </linearGradient>
  </defs>
  <!-- |||= Logo Symbol -->
  <g
     transform="translate(25, 73)">
    <!-- Bars grouped as single entity -->
    <g>
      <!-- Three vertical bars ||| -->
      <rect
         x="0"
         y="0"
         width="16"
         height="80"
         rx="3.5"
         fill="url(#logoGradient)" />
      <rect
         x="22"
         y="0"
         width="16"
         height="80"
         rx="3.5"
         fill="url(#logoGradient)" />
      <rect
         x="44"
         y="0"
         width="16"
         height="80"
         rx="3.5"
         fill="url(#logoGradient)" />
      <!-- Three horizontal bars = -->
      <rect
         x="65"
         y="4"
         width="35"
         height="16"
         rx="3.5"
         fill="url(#logoGradient)" />
      <rect
         x="65"
         y="29"
         width="35"
         height="16"
         rx="3.5"
         fill="url(#logoGradient)" />
      <rect
         x="65"
         y="54"
         width="35"
         height="16"
         rx="3.5"
         fill="url(#logoGradient)" />
    </g>
  </g>
  <!-- Text: HumberStack -->
  <g
     aria-label="HumberStack">
    <path
       d="M 158.51562,120 V 85.640625 h 6.9375 v 13.523437 h 13.59375 V 85.640625 h 6.9375 V 120 h -6.9375 V 104.97656 H 165.45312 V 120 Z m 50.97657,0 v -3.72656 q -1.35938,1.99219 -3.58594,3.14062 -2.20313,1.14844 -4.66406,1.14844 -2.50782,0 -4.5,-1.10156 -1.99219,-1.10156 -2.88282,-3.09375 -0.89062,-1.99219 -0.89062,-5.50781 V 95.109375 h 6.58594 v 11.437505 q 0,5.25 0.35156,6.44531 0.375,1.17187 1.33594,1.875 0.96093,0.67969 2.4375,0.67969 1.6875,0 3.02343,-0.91407 1.33594,-0.9375 1.82813,-2.29687 0.49219,-1.38281 0.49219,-6.72656 V 95.109375 h 6.58593 V 120 Z M 221.9375,95.109375 h 6.07031 v 3.398437 q 3.25781,-3.960937 7.75781,-3.960937 2.39063,0 4.14844,0.984375 1.75781,0.984375 2.88281,2.976562 1.64063,-1.992187 3.53907,-2.976562 1.89843,-0.984375 4.05468,-0.984375 2.74219,0 4.64063,1.125 1.89844,1.101562 2.83594,3.257812 0.67968,1.593753 0.67968,5.156253 V 120 h -6.58593 v -14.22656 q 0,-3.70313 -0.67969,-4.78125 -0.91406,-1.406253 -2.8125,-1.406253 -1.38281,0 -2.60156,0.843753 -1.21875,0.84375 -1.75782,2.48437 -0.53906,1.61719 -0.53906,5.13282 V 120 h -6.58594 v -13.64062 q 0,-3.63282 -0.35156,-4.6875 -0.35156,-1.05469 -1.10156,-1.57032 -0.72656,-0.515623 -1.99219,-0.515623 -1.52344,0 -2.74219,0.820313 -1.21875,0.82031 -1.75781,2.36719 -0.51562,1.54687 -0.51562,5.13281 V 120 H 221.9375 Z M 264.82812,120 V 85.640625 h 6.58594 v 12.375 q 3.04688,-3.46875 7.21875,-3.46875 4.54688,0 7.52344,3.304687 2.97656,3.281248 2.97656,9.445318 0,6.375 -3.04687,9.82031 -3.02344,3.44531 -7.35938,3.44531 -2.13281,0 -4.21875,-1.05469 -2.0625,-1.07812 -3.5625,-3.16406 V 120 Z m 6.53907,-12.98437 q 0,3.86718 1.21875,5.71875 1.71093,2.625 4.54687,2.625 2.17969,0 3.70313,-1.85157 1.54687,-1.875 1.54687,-5.88281 0,-4.26562 -1.54687,-6.14062 -1.54688,-1.898443 -3.96094,-1.898443 -2.36719,0 -3.9375,1.851563 -1.57031,1.82813 -1.57031,5.57813 z m 37.47656,5.0625 6.5625,1.10156 q -1.26563,3.60937 -4.00781,5.50781 -2.71875,1.875 -6.82032,1.875 -6.49218,0 -9.60937,-4.24219 -2.46094,-3.39843 -2.46094,-8.57812 0,-6.1875 3.23438,-9.67969 3.23437,-3.515625 8.17968,-3.515625 5.55469,0 8.76563,3.679687 3.21094,3.656248 3.07031,11.226568 h -16.5 q 0.0703,2.92968 1.59375,4.57031 1.52344,1.61719 3.79688,1.61719 1.54687,0 2.60156,-0.84375 1.05469,-0.84375 1.59375,-2.71875 z m 0.375,-6.65625 q -0.0703,-2.85938 -1.47656,-4.33594 -1.40625,-1.500003 -3.42188,-1.500003 -2.15625,0 -3.5625,1.570313 -1.40625,1.57031 -1.38281,4.26563 z M 327.42969,120 h -6.58594 V 95.109375 h 6.11719 v 3.539062 q 1.57031,-2.507812 2.8125,-3.304687 1.26562,-0.796875 2.85937,-0.796875 2.25,0 4.33594,1.242187 l -2.03906,5.742188 q -1.66407,-1.07812 -3.09375,-1.07812 -1.38282,0 -2.34375,0.77343 -0.96094,0.75 -1.52344,2.74219 -0.53906,1.99219 -0.53906,8.34375 z" />
    <path
       style="fill:#f97316"
       d="m 338.09375,108.82031 6.75,-0.65625 q 0.60937,3.39844 2.46094,4.99219 1.875,1.59375 5.03906,1.59375 3.35156,0 5.03906,-1.40625 1.71094,-1.42969 1.71094,-3.32812 0,-1.21875 -0.72656,-2.0625 -0.70313,-0.86719 -2.48438,-1.5 -1.21875,-0.42188 -5.55469,-1.5 -5.57812,-1.38282 -7.82812,-3.39844 -3.16406,-2.83594 -3.16406,-6.914065 0,-2.625 1.47656,-4.898438 1.5,-2.296875 4.28906,-3.492187 2.8125,-1.195313 6.77344,-1.195313 6.46875,0 9.72656,2.835938 3.28125,2.835937 3.44531,7.570312 l -6.9375,0.304688 q -0.44531,-2.648438 -1.92187,-3.796875 -1.45313,-1.171875 -4.38281,-1.171875 -3.02344,0 -4.73438,1.242187 -1.10156,0.796875 -1.10156,2.132813 0,1.21875 1.03125,2.085937 1.3125,1.101563 6.375,2.296875 5.0625,1.195313 7.47656,2.484373 2.4375,1.26563 3.79688,3.49219 1.38281,2.20313 1.38281,5.46094 0,2.95312 -1.64063,5.53125 -1.64062,2.57812 -4.64062,3.84375 -3,1.24219 -7.47656,1.24219 -6.51563,0 -10.00782,-3 -3.49218,-3.02344 -4.17187,-8.78907 z m 45.14062,-13.710935 v 5.250005 h -4.5 v 10.03125 q 0,3.04687 0.11719,3.5625 0.14063,0.49218 0.58594,0.82031 0.46875,0.32812 1.125,0.32812 0.91406,0 2.64844,-0.63281 l 0.5625,5.10938 q -2.29688,0.98437 -5.20313,0.98437 -1.78125,0 -3.21094,-0.58594 -1.42968,-0.60937 -2.10937,-1.54687 -0.65625,-0.96094 -0.91406,-2.57813 -0.21094,-1.14843 -0.21094,-4.64062 v -10.85156 h -3.02344 v -5.250005 h 3.02344 v -4.945313 l 6.60937,-3.84375 v 8.789063 z m 9.49219,7.593755 L 386.75,101.625 q 1.00781,-3.609375 3.46875,-5.34375 2.46094,-1.734375 7.3125,-1.734375 4.40625,0 6.5625,1.054687 2.15625,1.03125 3.02344,2.648438 0.89062,1.59375 0.89062,5.88281 l -0.0703,7.6875 q 0,3.28125 0.30469,4.85157 0.32812,1.54687 1.19531,3.32812 h -6.51563 q -0.25781,-0.65625 -0.63281,-1.94531 -0.16406,-0.58594 -0.23437,-0.77344 -1.6875,1.64063 -3.60938,2.46094 -1.92187,0.82031 -4.10156,0.82031 -3.84375,0 -6.07031,-2.08594 -2.20313,-2.08593 -2.20313,-5.27343 0,-2.10938 1.00781,-3.75 1.00782,-1.66407 2.8125,-2.53125 1.82813,-0.89063 5.25,-1.54688 4.61719,-0.86719 6.39844,-1.61719 v -0.65625 q 0,-1.89843 -0.9375,-2.69531 -0.9375,-0.820313 -3.53906,-0.820313 -1.75781,0 -2.74219,0.703123 -0.98437,0.67969 -1.59375,2.41407 z m 8.8125,5.34375 q -1.26562,0.42187 -4.00781,1.00781 -2.74219,0.58594 -3.58594,1.14844 -1.28906,0.91406 -1.28906,2.32031 0,1.38281 1.03125,2.39062 1.03125,1.00782 2.625,1.00782 1.78125,0 3.39844,-1.17188 1.19531,-0.89062 1.57031,-2.17969 0.25781,-0.84375 0.25781,-3.21093 z m 34.66406,-5.57813 -6.49218,1.17188 q -0.32813,-1.94532 -1.5,-2.92969 -1.14844,-0.984378 -3,-0.984378 -2.46094,0 -3.9375,1.710938 -1.45313,1.6875 -1.45313,5.67188 0,4.42968 1.47656,6.25781 1.5,1.82812 4.00782,1.82812 1.875,0 3.07031,-1.05468 1.19531,-1.07813 1.6875,-3.67969 l 6.46875,1.10156 q -1.00781,4.45313 -3.86719,6.72656 -2.85937,2.27344 -7.66406,2.27344 -5.46094,0 -8.71875,-3.44531 -3.23438,-3.44531 -3.23438,-9.53906 0,-6.16407 3.25782,-9.585943 3.25781,-3.445312 8.8125,-3.445312 4.54687,0 7.21875,1.96875 2.69531,1.945312 3.86718,5.953125 z M 440.96094,120 V 85.640625 h 6.58593 V 103.875 l 7.71094,-8.765625 h 8.10938 L 454.85937,104.20313 463.97656,120 H 456.875 l -6.25781,-11.17969 -3.07032,3.21094 V 120 Z" />
  </g>
</svg>
